<svg id="a6a8855e-9908-4b67-931d-dec820a1f422" data-name="Layer 1" xmlns="http://www.w3.org/2000/svg" viewBox="0 0 501.34 185.17"><defs><style>.fb2f88ad-d856-4970-845e-8ca181221f3d{fill:#ee362d;}.b68788f2-8c5b-4036-a050-788aa60ff1e3{fill:#6d6f6e;}.a4623477-9d64-4196-ad16-a4ec0546f2c0{fill:#6d6e70;}</style></defs><rect class="fb2f88ad-d856-4970-845e-8ca181221f3d" x="70.09" y="68.78" width="38.79" height="10.38" rx="1.94"/><rect class="fb2f88ad-d856-4970-845e-8ca181221f3d" x="70.09" y="87.47" width="24.59" height="10.38" rx="1.94"/><rect class="b68788f2-8c5b-4036-a050-788aa60ff1e3" x="104.96" y="87.47" width="24.59" height="10.38" rx="1.94"/><rect class="fb2f88ad-d856-4970-845e-8ca181221f3d" x="70.09" y="106.01" width="10.38" height="10.38" rx="1.94"/><rect class="b68788f2-8c5b-4036-a050-788aa60ff1e3" x="119.17" y="68.78" width="10.38" height="10.38" rx="1.94"/><rect class="b68788f2-8c5b-4036-a050-788aa60ff1e3" x="90.76" y="106.01" width="38.79" height="10.38" rx="1.94"/><path class="fb2f88ad-d856-4970-845e-8ca181221f3d" d="M154,80.1V93.33h19V98H154v15.34H148.6v-38h26.79V80.1Z"/><path class="fb2f88ad-d856-4970-845e-8ca181221f3d" d="M180.09,99.14c0-8.4,6.6-14.6,15.45-14.6S211,90.74,211,99.14s-6.55,14.6-15.45,14.6S180.09,107.54,180.09,99.14Zm26,0a10.55,10.55,0,1,0-10.55,10.4A10.15,10.15,0,0,0,206.09,99.14Z"/><path class="fb2f88ad-d856-4970-845e-8ca181221f3d" d="M237.55,113.34l-6.1-8.5a10.87,10.87,0,0,1-1.3,0H223.4v8.45h-4.85V84.94h11.6c7.45,0,12.15,3.65,12.15,10a9.09,9.09,0,0,1-6.25,9l6.75,9.4Zm-.15-18.4c0-3.85-2.6-6-7.55-6H223.4v12h6.45C234.8,100.94,237.4,98.79,237.4,94.94Z"/><path class="fb2f88ad-d856-4970-845e-8ca181221f3d" d="M269.8,99h4.7v11.1a17.2,17.2,0,0,1-10.95,3.65c-9.05,0-15.65-6.2-15.65-14.6s6.6-14.6,15.45-14.6c4.95,0,8.8,1.45,11.45,4.45l-3.1,3.15a10.87,10.87,0,0,0-8.25-3.4c-6.15,0-10.65,4.35-10.65,10.4s4.5,10.4,10.8,10.4a11.58,11.58,0,0,0,6.2-1.6Z"/><path class="fb2f88ad-d856-4970-845e-8ca181221f3d" d="M305.06,109.29v4h-21.3V84.94h20.75v4h-15.9v8h14.15v4H288.61v8.4Z"/><path class="a4623477-9d64-4196-ad16-a4ec0546f2c0" d="M319,80.1V93.33h19V98H319v15.34h-5.42v-38H340.4V80.1Z"/><path class="a4623477-9d64-4196-ad16-a4ec0546f2c0" d="M347.74,84.94h4.85v24.35h15.25v4h-20.1Z"/><path class="a4623477-9d64-4196-ad16-a4ec0546f2c0" d="M372.7,101.19V84.94h4.85v16.15c0,5.55,2.7,8.45,7.65,8.45s7.65-2.85,7.65-8.45V84.94h4.75v16.25c0,8-4.65,12.55-12.45,12.55S372.7,109.14,372.7,101.19Z"/><path class="a4623477-9d64-4196-ad16-a4ec0546f2c0" d="M424.5,113.34l-8.05-11-8.15,11h-5.55L413.8,98.79,403.4,84.94h5.45l7.65,10.3,7.6-10.3h5.4l-10.35,13.8,11,14.6Z"/></svg>